# xmcd
#
# Track frame offsets:
#	150
#	12420
#	26065
#	46517
#	58102
#	70795
#	83728
#	98860
#	109036
#	122432
#	137702
#	152527
#	167972
#	177855
#	192970
#	213530
#
# Disc length: 3036
#
# Revision: 2
# Processed by: cddbd v1.5.1PL0 Copyright (c) Steve Scherf et al.
# Submitted via: audiograbber 1.80
# Normalized: r1:DSETVAR1
#
DISCID=d10bda10
DTITLE=Various Artist - Country Highlights CD1
DYEAR=1900
DGENRE=
TTITLE0=Bob Wills and His Texas Playboys - Time Changes Everything
TTITLE1=Don Williams - Ruby Tuesday
TTITLE2=Charlie Rich - Big Bossman
TTITLE3=Waylon Jennings - Sally Was A Good Old Girl
TTITLE4=Bobby Bare - Tequile Sheila
TTITLE5=Boxcar Willie - Hobo Heaven
TTITLE6=Ed Bruce - Quietly Crazy
TTITLE7=Jim Reeves - Just Call Me Lonesome
TTITLE8=Johnny Tillotson - Let It Be Me
TTITLE9=Johnny Rodriguez - How Could I Love Her So Much
TTITLE10=Eddie Raven - Who Do Know In California
TTITLE11=Tom T. Hall - I Like Beer
TTITLE12=Leroy Van Dyke - The Auctioneer
TTITLE13=Gene Watson - Carmen
TTITLE14=Nitty Gritty Dirt Band - Mr Bojangles
TTITLE15=Freddy Fender - Mexican Rose
EXTD=
EXTT0=
EXTT1=
EXTT2=
EXTT3=
EXTT4=
EXTT5=
EXTT6=
EXTT7=
EXTT8=
EXTT9=
EXTT10=
EXTT11=
EXTT12=
EXTT13=
EXTT14=
EXTT15=
PLAYORDER=
